<svg width="22" height="22" viewBox="0 0 22 22" fill="none" xmlns="http://www.w3.org/2000/svg">
<path d="M6.875 2.21035e-07H1.375C1.1944 -0.000102204 1.01556 0.0353933 0.848689 0.104457C0.68182 0.173521 0.530201 0.274799 0.4025 0.4025C0.274799 0.530201 0.173521 0.68182 0.104457 0.848689C0.0353933 1.01556 -0.000102204 1.1944 2.21035e-07 1.375V6.875C2.21035e-07 7.23967 0.144866 7.58941 0.402728 7.84727C0.660591 8.10513 1.01033 8.25 1.375 8.25C1.73967 8.25 2.08941 8.10513 2.34727 7.84727C2.60513 7.58941 2.75 7.23967 2.75 6.875V2.75H6.875C7.23967 2.75 7.58941 2.60513 7.84727 2.34727C8.10513 2.08941 8.25 1.73967 8.25 1.375C8.25 1.01033 8.10513 0.660591 7.84727 0.402728C7.58941 0.144866 7.23967 2.21035e-07 6.875 2.21035e-07Z" fill="#B2ABAB"/>
<path d="M20.625 2.21035e-07H15.125C14.7603 2.21035e-07 14.4106 0.144866 14.1527 0.402728C13.8949 0.660591 13.75 1.01033 13.75 1.375C13.75 1.73967 13.8949 2.08941 14.1527 2.34727C14.4106 2.60513 14.7603 2.75 15.125 2.75H19.25V6.875C19.25 7.23967 19.3949 7.58941 19.6527 7.84727C19.9106 8.10513 20.2603 8.25 20.625 8.25C20.9897 8.25 21.3394 8.10513 21.5973 7.84727C21.8551 7.58941 22 7.23967 22 6.875V1.375C22.0001 1.1944 21.9646 1.01556 21.8955 0.848689C21.8265 0.68182 21.7252 0.530201 21.5975 0.4025C21.4698 0.274799 21.3182 0.173521 21.1513 0.104457C20.9844 0.0353933 20.8056 -0.000102204 20.625 2.21035e-07Z" fill="#B2ABAB"/>
<path d="M6.875 19.25H2.75V15.125C2.75 14.7603 2.60513 14.4106 2.34727 14.1527C2.08941 13.8949 1.73967 13.75 1.375 13.75C1.01033 13.75 0.660591 13.8949 0.402728 14.1527C0.144866 14.4106 2.21035e-07 14.7603 2.21035e-07 15.125V20.625C-0.000102204 20.8056 0.0353933 20.9844 0.104457 21.1513C0.173521 21.3182 0.274799 21.4698 0.4025 21.5975C0.530201 21.7252 0.68182 21.8265 0.848689 21.8955C1.01556 21.9646 1.1944 22.0001 1.375 22H6.875C7.23967 22 7.58941 21.8551 7.84727 21.5973C8.10513 21.3394 8.25 20.9897 8.25 20.625C8.25 20.2603 8.10513 19.9106 7.84727 19.6527C7.58941 19.3949 7.23967 19.25 6.875 19.25Z" fill="#B2ABAB"/>
<path d="M20.625 13.75C20.4444 13.7499 20.2656 13.7854 20.0987 13.8545C19.9318 13.9235 19.7802 14.0248 19.6525 14.1525C19.5248 14.2802 19.4235 14.4318 19.3545 14.5987C19.2854 14.7656 19.2499 14.9444 19.25 15.125V19.25H15.125C14.7603 19.25 14.4106 19.3949 14.1527 19.6527C13.8949 19.9106 13.75 20.2603 13.75 20.625C13.75 20.9897 13.8949 21.3394 14.1527 21.5973C14.4106 21.8551 14.7603 22 15.125 22H20.625C20.8056 22.0001 20.9844 21.9646 21.1513 21.8955C21.3182 21.8265 21.4698 21.7252 21.5975 21.5975C21.7252 21.4698 21.8265 21.3182 21.8955 21.1513C21.9646 20.9844 22.0001 20.8056 22 20.625V15.125C22.0001 14.9444 21.9646 14.7656 21.8955 14.5987C21.8265 14.4318 21.7252 14.2802 21.5975 14.1525C21.4698 14.0248 21.3182 13.9235 21.1513 13.8545C20.9844 13.7854 20.8056 13.7499 20.625 13.75Z" fill="#B2ABAB"/>
</svg>
