<svg width="28" height="28" viewBox="0 0 28 28" fill="none" xmlns="http://www.w3.org/2000/svg">
<rect x="0.15" y="0.15" width="27.7" height="27.7" rx="9.85" fill="white" stroke="white" stroke-width="0.3"/>
<g clip-path="url(#clip0_7500_240)">
<path d="M9.5625 13.5H12.8438" stroke="#05A8ED" stroke-width="1.5" stroke-linecap="round" stroke-linejoin="round"/>
<path d="M8.90625 11.2031H5.625C5.26256 11.2031 4.96875 11.4969 4.96875 11.8594V15.1406C4.96875 15.5031 5.26256 15.7969 5.625 15.7969H8.90625C9.26869 15.7969 9.5625 15.5031 9.5625 15.1406V11.8594C9.5625 11.4969 9.26869 11.2031 8.90625 11.2031Z" stroke="#05A8ED" stroke-width="1.5" stroke-linecap="round" stroke-linejoin="round"/>
<path d="M20.7188 6.28125H16.7812C16.4188 6.28125 16.125 6.57506 16.125 6.9375V10.875C16.125 11.2374 16.4188 11.5312 16.7812 11.5312H20.7188C21.0812 11.5312 21.375 11.2374 21.375 10.875V6.9375C21.375 6.57506 21.0812 6.28125 20.7188 6.28125Z" stroke="#05A8ED" stroke-width="1.5" stroke-linecap="round" stroke-linejoin="round"/>
<path d="M20.7188 15.4688H16.7812C16.4188 15.4688 16.125 15.7626 16.125 16.125V20.0625C16.125 20.4249 16.4188 20.7188 16.7812 20.7188H20.7188C21.0812 20.7188 21.375 20.4249 21.375 20.0625V16.125C21.375 15.7626 21.0812 15.4688 20.7188 15.4688Z" stroke="#05A8ED" stroke-width="1.5" stroke-linecap="round" stroke-linejoin="round"/>
<path d="M16.125 18.0938H14.8125C14.5537 18.0949 14.2972 18.0447 14.0578 17.9461C13.8185 17.8476 13.601 17.7026 13.418 17.5196C13.2349 17.3365 13.09 17.1191 12.9914 16.8797C12.8929 16.6404 12.8427 16.3839 12.8438 16.125V10.875C12.8427 10.6162 12.8929 10.3597 12.9914 10.1203C13.09 9.88098 13.2349 9.66351 13.418 9.48048C13.601 9.29745 13.8185 9.15247 14.0578 9.05392C14.2972 8.95536 14.5537 8.90518 14.8125 8.90627H16.125" stroke="#05A8ED" stroke-width="1.5" stroke-linecap="round" stroke-linejoin="round"/>
</g>
<defs>
<clipPath id="clip0_7500_240">
<rect width="21" height="21" fill="white" transform="translate(3 3)"/>
</clipPath>
</defs>
</svg>
