<svg width="30" height="26" viewBox="0 0 30 26" fill="none" xmlns="http://www.w3.org/2000/svg">
<path d="M10.2803 0.893555C12.3483 0.561296 14.4709 0.808719 16.4111 1.6123L16.7959 1.78027C18.7002 2.653 20.3283 4.0379 21.4951 5.78418L21.7217 6.13672C22.8203 7.92037 23.4043 9.97685 23.4043 12.0771C23.4042 15.0812 22.2101 17.9618 20.0859 20.0859C17.9618 22.2101 15.0812 23.4042 12.0771 23.4043C9.97685 23.4043 7.92037 22.8203 6.13672 21.7217L5.78418 21.4951C4.0379 20.3283 2.653 18.7002 1.78027 16.7959L1.6123 16.4111C0.75511 14.3415 0.530746 12.0643 0.967773 9.86719L1.05664 9.45703C1.5411 7.41913 2.58234 5.55243 4.06738 4.06738L4.36914 3.77637C5.90421 2.3509 7.80722 1.37753 9.86719 0.967773L10.2803 0.893555ZM12.0771 3.0957C10.4119 3.0957 8.78136 3.55872 7.36719 4.42969L7.08789 4.60938C5.61101 5.59619 4.45903 6.9996 3.7793 8.64062C3.09976 10.2815 2.92207 12.0872 3.26855 13.8291L3.33984 14.1543C3.72398 15.77 4.54918 17.2503 5.72656 18.4277L5.96582 18.6582C7.18291 19.7884 8.69195 20.5599 10.3252 20.8848C12.0672 21.2312 13.8727 21.0537 15.5137 20.374L15.8184 20.2412C17.3283 19.5493 18.6188 18.451 19.5439 17.0664L19.7236 16.7861C20.5945 15.3721 21.0576 13.7422 21.0576 12.0771C21.0576 10.8979 20.8252 9.73011 20.374 8.64062C19.9791 7.68723 19.4229 6.80995 18.7314 6.04688L18.4277 5.72656C17.5938 4.89262 16.6033 4.23062 15.5137 3.7793C14.4242 3.32806 13.2564 3.09573 12.0771 3.0957Z" fill="#B2ABAB" stroke="#B2ABAB" stroke-width="0.5"/>
<path d="M20.3335 17.3682C20.4484 17.3632 20.5635 17.3757 20.6753 17.4043C20.8245 17.4425 20.9652 17.5092 21.0884 17.6016L28.4731 23.1406L28.562 23.2148C28.7608 23.3973 28.8917 23.6436 28.9302 23.9131L28.9409 24.0283C28.9509 24.2594 28.8928 24.4887 28.7729 24.6865L28.7075 24.7822C28.6255 24.8916 28.5254 24.9861 28.4116 25.0605L28.2935 25.1279C28.1306 25.2093 27.9511 25.252 27.769 25.252C27.5469 25.2519 27.3298 25.1891 27.1431 25.0713L27.0649 25.0176L19.6802 19.4785C19.588 19.4093 19.5069 19.3269 19.439 19.2344L19.3755 19.1377C19.3166 19.0383 19.272 18.9312 19.2446 18.8193L19.2231 18.7061C19.2014 18.5536 19.2103 18.3982 19.2485 18.249C19.2868 18.0999 19.3534 17.9591 19.4458 17.8359L19.52 17.748C19.5977 17.6633 19.6873 17.5901 19.7866 17.5312L19.8892 17.4775C19.9934 17.429 20.1041 17.3953 20.2183 17.3789L20.3335 17.3682Z" fill="#B2ABAB" stroke="#B2ABAB" stroke-width="0.5"/>
<path d="M15.7691 11.1523H8.38452V12.9985H15.7691V11.1523Z" fill="#B2ABAB"/>
<path d="M13 8.38281H11.1538V15.7674H13V8.38281Z" fill="#B2ABAB"/>
</svg>
