<svg width="25" height="25" viewBox="0 0 25 25" fill="none" xmlns="http://www.w3.org/2000/svg">
<path d="M7.89465 11.8425H13.1578C13.9473 11.8425 14.4736 11.3162 14.4736 10.5267C14.4736 9.73725 13.9473 9.21094 13.1578 9.21094H7.89465C7.10517 9.21094 6.57886 9.73725 6.57886 10.5267C6.57886 11.3162 7.10517 11.8425 7.89465 11.8425Z" fill="#B2ABAB"/>
<path d="M10.5263 21.0526C13.0263 21.0526 15.2632 20.2632 16.9737 18.8158L22.7632 24.6053C23.0263 24.8684 23.4211 25 23.6842 25C23.9474 25 24.3421 24.8684 24.6053 24.6053C25.1316 24.0789 25.1316 23.2895 24.6053 22.7632L18.8158 16.9737C20.1316 15.1316 21.0526 13.0263 21.0526 10.5263C21.0526 4.73684 16.3158 0 10.5263 0C4.73684 0 0 4.73684 0 10.5263C0 16.3158 4.73684 21.0526 10.5263 21.0526ZM10.5263 2.63158C14.8684 2.63158 18.4211 6.18421 18.4211 10.5263C18.4211 14.8684 14.8684 18.4211 10.5263 18.4211C6.18421 18.4211 2.63158 14.8684 2.63158 10.5263C2.63158 6.18421 6.18421 2.63158 10.5263 2.63158Z" fill="#B2ABAB"/>
</svg>
